# 3ds Max Wavefront OBJ Exporter v0.97b - (c)2007 guruware
# File Created: 16.07.2014 05:39:05

mtllib Ground.mtl

#
# object Plane001
#

v  -87.2252 0.0000 113.3585
v  -38.0126 0.0000 113.3585
v  -38.0126 0.0000 64.1459
v  -87.2252 0.0000 64.1459
v  11.2000 0.0000 113.3585
v  11.2000 0.0000 64.1459
v  60.4126 0.0000 113.3585
v  60.4126 0.0000 64.1459
v  109.6252 0.0000 113.3585
v  109.6252 0.0000 64.1459
v  -38.0126 7.1080 14.9333
v  -87.2252 0.0000 14.9333
v  11.2000 7.1080 14.9333
v  60.4126 0.0000 14.9333
v  109.6252 0.0000 14.9333
v  -38.0126 0.0000 -34.2793
v  -87.2252 0.0000 -34.2793
v  11.2000 0.0000 -34.2793
v  60.4126 0.0000 -34.2793
v  109.6252 0.0000 -34.2793
v  -38.0126 0.0000 -83.4919
v  -87.2252 0.0000 -83.4919
v  11.2000 0.0000 -83.4919
v  60.4126 0.0000 -83.4919
v  109.6252 0.0000 -83.4919
# 25 vertices

vn 0.0000 1.0000 -0.0000
vn 0.0000 0.9974 0.0717
vn -0.0360 0.9987 0.0360
vn 0.0180 0.9984 0.0538
vn -0.0535 0.9984 -0.0174
vn -0.1074 0.9936 -0.0359
vn 0.0535 0.9984 0.0174
vn 0.0538 0.9984 0.0180
vn -0.0180 0.9984 -0.0538
vn 0.0000 0.9974 -0.0717
vn 0.0180 0.9997 -0.0180
# 11 vertex normals

vt 0.0000 0.0000 0.0000
vt 0.2500 0.0000 0.0000
vt 0.2500 0.2500 0.0000
vt 0.0000 0.2500 0.0000
vt 0.5000 0.0000 0.0000
vt 0.5000 0.2500 0.0000
vt 0.7500 0.0000 0.0000
vt 0.7500 0.2500 0.0000
vt 1.0000 0.0000 0.0000
vt 1.0000 0.2500 0.0000
vt 0.2500 0.5000 0.0000
vt 0.0000 0.5000 0.0000
vt 0.5000 0.5000 0.0000
vt 0.7500 0.5000 0.0000
vt 1.0000 0.5000 0.0000
vt 0.2500 0.7500 0.0000
vt 0.0000 0.7500 0.0000
vt 0.5000 0.7500 0.0000
vt 0.7500 0.7500 0.0000
vt 1.0000 0.7500 0.0000
vt 0.2500 1.0000 0.0000
vt 0.0000 1.0000 0.0000
vt 0.5000 1.0000 0.0000
vt 0.7500 1.0000 0.0000
vt 1.0000 1.0000 0.0000
# 25 texture coords

g Plane001
usemtl wire_061135006
s 1
f 1/1/1 2/2/1 3/3/2 4/4/3 
f 2/2/1 5/5/1 6/6/4 3/3/2 
f 5/5/1 7/7/1 8/8/1 6/6/4 
f 7/7/1 9/9/1 10/10/1 8/8/1 
f 4/4/3 3/3/2 11/11/5 12/12/6 
f 3/3/2 6/6/4 13/13/7 11/11/5 
f 6/6/4 8/8/1 14/14/8 13/13/7 
f 8/8/1 10/10/1 15/15/1 14/14/8 
f 12/12/6 11/11/5 16/16/9 17/17/1 
f 11/11/5 13/13/7 18/18/10 16/16/9 
f 13/13/7 14/14/8 19/19/11 18/18/10 
f 14/14/8 15/15/1 20/20/1 19/19/11 
f 17/17/1 16/16/9 21/21/1 22/22/1 
f 16/16/9 18/18/10 23/23/1 21/21/1 
f 18/18/10 19/19/11 24/24/1 23/23/1 
f 19/19/11 20/20/1 25/25/1 24/24/1 
# 16 polygons

